<svg aria-hidden="true" style="position: absolute; width: 0; height: 0; overflow: hidden;" version="1.1" xmlns="http://www.w3.org/2000/svg" xmlns:xlink="http://www.w3.org/1999/xlink"><defs><symbol id="icon-add-circle-solid" viewBox="0 0 24 24"><path d="M12 2C6.48 2 2 6.48 2 12s4.48 10 10 10 10-4.48 10-10S17.52 2 12 2zm5 11h-4v4h-2v-4H7v-2h4V7h2v4h4v2z"></path></symbol><symbol id="icon-collapse-minus" viewBox="0 0 24 24"><path d="M5 11v2h14v-2H5z"></path></symbol><symbol id="icon-expand-plus" viewBox="0 0 24 24"><path d="M19 13h-6v6h-2v-6H5v-2h6V5h2v6h6v2z"></path></symbol><symbol id="icon-lifetime" viewBox="0 0 24 24"><path d="M18.6 6.62c-1.44 0-2.8.56-3.77 1.53L12 10.66 10.48 12h.01L7.8 14.39c-.64.64-1.49.99-2.4.99-1.87 0-3.39-1.51-3.39-3.38S3.53 8.62 5.4 8.62c.91 0 1.76.35 2.44 1.03l1.13 1 1.51-1.34L9.22 8.2A5.37 5.37 0 005.4 6.62C2.42 6.62 0 9.04 0 12s2.42 5.38 5.4 5.38c1.44 0 2.8-.56 3.77-1.53l2.83-2.5.01.01L13.52 12h-.01l2.69-2.39c.64-.64 1.49-.99 2.4-.99 1.87 0 3.39 1.51 3.39 3.38s-1.52 3.38-3.39 3.38c-.9 0-1.76-.35-2.44-1.03l-1.14-1.01-1.51 1.34 1.27 1.12a5.386 5.386 0 003.82 1.57c2.98 0 5.4-2.41 5.4-5.38s-2.42-5.37-5.4-5.37z"></path></symbol><symbol id="icon-people" viewBox="0 0 24 24"><path d="M16 10c1.66 0 2.99-1.34 2.99-3S17.66 4 16 4c-1.66 0-3 1.34-3 3s1.34 3 3 3zm-8 0c1.66 0 2.99-1.34 2.99-3S9.66 4 8 4C6.34 4 5 5.34 5 7s1.34 3 3 3zm0 2c-2.33 0-7 1.17-7 3.5V20h14v-4.5c0-2.33-4.67-3.5-7-3.5zm8 0c-.29 0-.62.02-.97.05 1.16.84 1.97 1.97 1.97 3.45V20h6v-4.5c0-2.33-4.67-3.5-7-3.5z"></path></symbol><symbol id="icon-play-overlay" viewBox="0 0 24 24"><circle cy="12" cx="12" fill="#1e1e1c" r="10"></circle><path d="M0 12A12 12 0 1012 0 12 12 0 000 12zm18 .137L8.4 16.8V7.2l9.6 4.937z"></path></symbol><symbol id="icon-rating-star" viewBox="0 0 24 24"><path d="M12 17.27L18.18 21l-1.64-7.03L22 9.24l-7.19-.61L12 2 9.19 8.63 2 9.24l5.46 4.73L5.82 21 12 17.27z"></path></symbol><symbol id="icon-solid-arrow-right" viewBox="0 0 24 24"><path d="M8.808 5.849l7.92 6.222-7.92 6.222V5.85z"></path></symbol><symbol id="icon-tick" viewBox="0 0 24 24"><path d="M9 16.17L4.83 12l-1.42 1.41L9 19 21 7l-1.41-1.41L9 16.17z"></path></symbol><symbol id="icon-udemy-select" viewBox="0 0 24 24"><path d="m19.5079 6.3745 2.8637 2.1486-1.0935 3.4766 1.0935 3.4765-2.8637 2.1486-1.0936 3.4766h-3.5397l-2.8638 2.1486-2.86374-2.1486h-3.53976l-1.09355-3.4766-2.86375-2.1486 1.09355-3.4765-1.09355-3.4766 2.86375-2.14793 1.09355-3.47657h3.53976l2.86374-2.1486 2.8638 2.14793h3.5397zm-7.509 4.9113 6.6 3.9358h.0011v-3.9358l-6.6-3.9358-6.6 3.9358v3.9358z"></path></symbol><symbol id="icon-wishlisted" viewBox="0 0 24 24"><path d="M12 21.35l-1.45-1.32C5.4 15.36 2 12.28 2 8.5 2 5.42 4.42 3 7.5 3c1.74 0 3.41.81 4.5 2.09C13.09 3.81 14.76 3 16.5 3 19.58 3 22 5.42 22 8.5c0 3.78-3.4 6.86-8.55 11.54L12 21.35z"></path></symbol></defs></svg>